#N canvas 0 0 500 360 10;
#X obj 50 40 nbx 5 14 20 20000 0 0 empty empty empty 0 -8 0 10 -262144 -1 -1 440 256;
#X obj 220 40 nbx 5 14 0 1 0 0 empty empty empty 0 -8 0 10 -262144 -1 -1 0 256;
#X obj 50 90 osc~ 440;
#X obj 220 90 pack f 10;
#X obj 220 140 line~;
#X obj 120 190 *~;
#X obj 120 240 *~ 0.25;
#X obj 120 290 dac~;
#X connect 0 0 2 0;
#X connect 1 0 3 0;
#X connect 3 0 4 0;
#X connect 2 0 5 0;
#X connect 4 0 5 1;
#X connect 5 0 6 0;
#X connect 6 0 7 0;
#X connect 6 0 7 1;