#N canvas 0 0 450 300 10;
#X obj 50 40 nbx 5 14 -1e+37 1e+37 0 0 empty empty empty 0 -8 0 10 -262144 -1 -1 440 256;
#X obj 50 80 osc~;
#X obj 50 120 *~ 0.1;
#X obj 50 160 dac~;
#X connect 0 0 1 0;
#X connect 1 0 2 0;
#X connect 2 0 3 0;
#X connect 2 0 3 1;
